{
  "accessors": [
    {
      "bufferView": 2,
      "componentType": 5126,
      "count": 2124,
      "max": [
        7.456299781799316,
        -2.26990008354187,
        7.795599937438965
      ],
      "min": [
        -7.264500141143799,
        -8.032999992370605,
        1.0573999881744385
      ],
      "type": "VEC3"
    },
    {
      "bufferView": 2,
      "byteOffset": 25488,
      "componentType": 5126,
      "count": 2124,
      "max": [
        0.9999754428863525,
        0.9998171925544739,
        0.9999786615371704
      ],
      "min": [
        -0.9995492100715637,
        -0.9999587535858154,
        -0.9991186261177063
      ],
      "type": "VEC3"
    },
    {
      "bufferView": 3,
      "componentType": 5126,
      "count": 2124,
      "max": [
        0.9999997615814209,
        0.9985767006874084,
        0.9971754550933838,
        1.0
      ],
      "min": [
        -0.9999997019767761,
        -0.9946001768112183,
        -0.9998692870140076,
        -1.0
      ],
      "type": "VEC4"
    },
    {
      "bufferView": 1,
      "componentType": 5126,
      "count": 2124,
      "max": [
        0.7623000144958496,
        0.8946999907493591
      ],
      "min": [
        0.006899999920278788,
        0.0005000000237487257
      ],
      "type": "VEC2"
    },
    {
      "bufferView": 0,
      "componentType": 5125,
      "count": 8790,
      "type": "SCALAR"
    },
    {
      "bufferView": 2,
      "byteOffset": 50976,
      "componentType": 5126,
      "count": 5996,
      "max": [
        7.591100215911865,
        -2.1563000679016113,
        8.54699993133545
      ],
      "min": [
        -7.393700122833252,
        -8.16349983215332,
        1.0578999519348145
      ],
      "type": "VEC3"
    },
    {
      "bufferView": 2,
      "byteOffset": 122928,
      "componentType": 5126,
      "count": 5996,
      "max": [
        0.9999679327011108,
        0.9999804496765137,
        0.9988769888877869
      ],
      "min": [
        -0.9999169111251831,
        -0.993319571018219,
        -0.9997006058692932
      ],
      "type": "VEC3"
    },
    {
      "bufferView": 3,
      "byteOffset": 33984,
      "componentType": 5126,
      "count": 5996,
      "max": [
        0.9999998211860657,
        0.9999744296073914,
        0.9999843835830688,
        1.0
      ],
      "min": [
        -0.9999996423721313,
        -0.9999865293502808,
        -0.9999960064888,
        -1.0
      ],
      "type": "VEC4"
    },
    {
      "bufferView": 1,
      "byteOffset": 16992,
      "componentType": 5126,
      "count": 5996,
      "max": [
        0.8012999892234802,
        0.8948000073432922
      ],
      "min": [
        0.006200000178068876,
        0.20739999413490295
      ],
      "type": "VEC2"
    },
    {
      "bufferView": 0,
      "byteOffset": 35160,
      "componentType": 5125,
      "count": 15780,
      "type": "SCALAR"
    },
    {
      "bufferView": 2,
      "byteOffset": 194880,
      "componentType": 5126,
      "count": 11688,
      "max": [
        7.621500015258789,
        -2.2353999614715576,
        9.2076997756958
      ],
      "min": [
        -7.423999786376953,
        -8.138799667358398,
        0.04309999942779541
      ],
      "type": "VEC3"
    },
    {
      "bufferView": 2,
      "byteOffset": 335136,
      "componentType": 5126,
      "count": 11688,
      "max": [
        0.9999781847000122,
        0.999982476234436,
        0.9988822340965271
      ],
      "min": [
        -0.9999558925628662,
        -0.9999662637710571,
        -0.9995225071907043
      ],
      "type": "VEC3"
    },
    {
      "bufferView": 3,
      "byteOffset": 129920,
      "componentType": 5126,
      "count": 11688,
      "max": [
        0.9999998211860657,
        0.9999529719352722,
        0.9999843835830688,
        1.0
      ],
      "min": [
        -0.9999995827674866,
        -0.9999865293502808,
        -0.9999456405639648,
        -1.0
      ],
      "type": "VEC4"
    },
    {
      "bufferView": 1,
      "byteOffset": 64960,
      "componentType": 5126,
      "count": 11688,
      "max": [
        0.8072999715805054,
        0.9994999766349792
      ],
      "min": [
        0.0005000000237487257,
        0.0013000000035390258
      ],
      "type": "VEC2"
    },
    {
      "bufferView": 0,
      "byteOffset": 98280,
      "componentType": 5125,
      "count": 60444,
      "type": "SCALAR"
    },
    {
      "bufferView": 2,
      "byteOffset": 475392,
      "componentType": 5126,
      "count": 7249,
      "max": [
        7.591100215911865,
        -2.1563000679016113,
        8.54699993133545
      ],
      "min": [
        -7.393700122833252,
        -8.168999671936035,
        1.020300030708313
      ],
      "type": "VEC3"
    },
    {
      "bufferView": 2,
      "byteOffset": 562380,
      "componentType": 5126,
      "count": 7249,
      "max": [
        0.9999200105667114,
        0.9999858140945435,
        0.9993537664413452
      ],
      "min": [
        -0.9999200105667114,
        -0.9998812675476074,
        -0.9997006058692932
      ],
      "type": "VEC3"
    },
    {
      "bufferView": 3,
      "byteOffset": 316928,
      "componentType": 5126,
      "count": 7249,
      "max": [
        0.9999997615814209,
        0.9999529719352722,
        0.9999843835830688,
        1.0
      ],
      "min": [
        -1.0,
        -0.999914824962616,
        -0.9999844431877136,
        -1.0
      ],
      "type": "VEC4"
    },
    {
      "bufferView": 1,
      "byteOffset": 158464,
      "componentType": 5126,
      "count": 7249,
      "max": [
        0.669700026512146,
        0.8948000073432922
      ],
      "min": [
        0.027300000190734863,
        0.23669999837875366
      ],
      "type": "VEC2"
    },
    {
      "bufferView": 0,
      "byteOffset": 340056,
      "componentType": 5125,
      "count": 22554,
      "type": "SCALAR"
    }
  ],
  "asset": {
    "extras": {
      "author": "vinigor (https://sketchfab.com/vinigor)",
      "license": "CC-BY-4.0 (http://creativecommons.org/licenses/by/4.0/)",
      "source": "https://sketchfab.com/3d-models/eye-protection-glasses-0ba6c4545fe14f0d9b8406ff030fd042",
      "title": "Eye protection glasses"
    },
    "generator": "Sketchfab-12.68.0",
    "version": "2.0"
  },
  "bufferViews": [
    {
      "buffer": 0,
      "byteLength": 430272,
      "name": "floatBufferViews",
      "target": 34963
    },
    {
      "buffer": 0,
      "byteLength": 216456,
      "byteOffset": 430272,
      "byteStride": 8,
      "name": "floatBufferViews",
      "target": 34962
    },
    {
      "buffer": 0,
      "byteLength": 649368,
      "byteOffset": 646728,
      "byteStride": 12,
      "name": "floatBufferViews",
      "target": 34962
    },
    {
      "buffer": 0,
      "byteLength": 432912,
      "byteOffset": 1296096,
      "byteStride": 16,
      "name": "floatBufferViews",
      "target": 34962
    }
  ],
  "buffers": [
    {
      "byteLength": 1729008,
      "uri": "scene.bin"
    }
  ],
  "images": [
    {
      "uri": "textures/material_0_baseColor.png"
    },
    {
      "uri": "textures/material_0_metallicRoughness.png"
    },
    {
      "uri": "textures/material_0_normal.png"
    }
  ],
  "materials": [
    {
      "alphaMode": "BLEND",
      "doubleSided": true,
      "name": "material_0",
      "normalTexture": {
        "index": 2
      },
      "pbrMetallicRoughness": {
        "baseColorFactor": [
          0.5726820265785165,
          0.5726820265785165,
          0.5726820265785165,
          1.0
        ],
        "baseColorTexture": {
          "index": 0
        },
        "metallicFactor": 0.104952337892108,
        "metallicRoughnessTexture": {
          "index": 1
        },
        "roughnessFactor": 0.29933350721632973
      }
    }
  ],
  "meshes": [
    {
      "name": "Object_0",
      "primitives": [
        {
          "attributes": {
            "NORMAL": 1,
            "POSITION": 0,
            "TANGENT": 2,
            "TEXCOORD_0": 3
          },
          "indices": 4,
          "material": 0,
          "mode": 4
        }
      ]
    },
    {
      "name": "Object_1",
      "primitives": [
        {
          "attributes": {
            "NORMAL": 6,
            "POSITION": 5,
            "TANGENT": 7,
            "TEXCOORD_0": 8
          },
          "indices": 9,
          "material": 0,
          "mode": 4
        }
      ]
    },
    {
      "name": "Object_2",
      "primitives": [
        {
          "attributes": {
            "NORMAL": 11,
            "POSITION": 10,
            "TANGENT": 12,
            "TEXCOORD_0": 13
          },
          "indices": 14,
          "material": 0,
          "mode": 4
        }
      ]
    },
    {
      "name": "Object_3",
      "primitives": [
        {
          "attributes": {
            "NORMAL": 16,
            "POSITION": 15,
            "TANGENT": 17,
            "TEXCOORD_0": 18
          },
          "indices": 19,
          "material": 0,
          "mode": 4
        }
      ]
    }
  ],
  "nodes": [
    {
      "children": [
        1
      ],
      "matrix": [
        1.0,
        0.0,
        0.0,
        0.0,
        0.0,
        2.220446049250313e-16,
        -1.0,
        0.0,
        0.0,
        1.0,
        2.220446049250313e-16,
        0.0,
        0.0,
        0.0,
        0.0,
        1.0
      ],
      "name": "Sketchfab_model"
    },
    {
      "children": [
        2,
        3,
        4,
        5
      ],
      "name": "gw.obj.cleaner.materialmerger.gles"
    },
    {
      "mesh": 0,
      "name": "Object_2"
    },
    {
      "mesh": 1,
      "name": "Object_3"
    },
    {
      "mesh": 2,
      "name": "Object_4"
    },
    {
      "mesh": 3,
      "name": "Object_5"
    }
  ],
  "samplers": [
    {
      "magFilter": 9729,
      "minFilter": 9987,
      "wrapS": 10497,
      "wrapT": 10497
    }
  ],
  "scene": 0,
  "scenes": [
    {
      "name": "Sketchfab_Scene",
      "nodes": [
        0
      ]
    }
  ],
  "textures": [
    {
      "sampler": 0,
      "source": 0
    },
    {
      "sampler": 0,
      "source": 1
    },
    {
      "sampler": 0,
      "source": 2
    }
  ]
}
